<?xml version="1.0" standalone="no"?>
<!DOCTYPE svg PUBLIC "-//W3C//DTD SVG 20010904//EN"
 "http://www.w3.org/TR/2001/REC-SVG-20010904/DTD/svg10.dtd">
<svg version="1.0" xmlns="http://www.w3.org/2000/svg"
 width="700.000000pt" height="700.000000pt" viewBox="0 0 700.000000 700.000000"
 preserveAspectRatio="xMidYMid meet">
<metadata>
Created by potrace 1.11, written by Peter Selinger 2001-2013
</metadata>
<g transform="translate(0.000000,700.000000) scale(0.100000,-0.100000)"
fill="#000000" stroke="none">
<path d="M1140 6981 c-67 -27 -127 -86 -151 -150 -17 -47 -19 -70 -15 -160 7
-133 14 -217 22 -256 4 -16 8 -44 10 -61 25 -262 162 -667 321 -949 134 -237
368 -508 599 -695 359 -289 850 -514 1367 -625 l79 -17 -6 -31 c-3 -18 -8 -48
-11 -67 -13 -97 -44 -331 -49 -375 -4 -27 -8 -68 -11 -90 -2 -22 -7 -83 -11
-135 -3 -52 -7 -113 -9 -135 -6 -78 -18 -351 -17 -392 0 -42 0 -43 -41 -53
-125 -31 -171 -46 -260 -85 -266 -117 -500 -337 -646 -606 l-40 -74 -148 -1
c-124 -1 -164 -6 -245 -27 -185 -49 -338 -136 -469 -266 -106 -107 -218 -282
-243 -383 -8 -34 -10 -34 -77 -5 -80 35 -144 48 -234 48 -244 -1 -455 -155
-535 -391 -30 -85 -32 -237 -6 -325 21 -73 72 -165 123 -224 51 -60 171 -136
252 -161 126 -39 282 -30 401 23 56 24 149 89 163 114 14 24 35 14 71 -36 20
-26 68 -79 107 -116 192 -181 429 -274 696 -274 234 1 449 78 638 230 l89 71
55 -27 c83 -40 196 -80 281 -99 41 -9 86 -19 100 -22 57 -13 328 -12 410 1
145 23 280 65 398 126 l53 27 22 -21 c26 -26 110 -94 153 -123 87 -61 248
-124 378 -148 75 -13 288 -15 344 -2 272 62 454 170 614 363 l60 73 51 -46
c185 -166 479 -184 685 -42 123 85 210 220 238 368 54 292 -151 594 -442 650
-59 12 -189 9 -247 -4 -38 -9 -129 -45 -144 -58 -9 -7 -16 -2 -24 18 -111 274
-260 448 -489 571 -159 86 -307 119 -515 116 l-110 -2 -30 62 c-78 162 -231
347 -376 456 -179 135 -347 212 -563 256 l-29 6 7 187 c4 103 9 203 11 222 2
19 6 76 10 125 9 120 9 118 31 310 3 22 7 51 9 65 3 14 7 48 10 75 3 28 8 66
11 85 4 19 8 42 10 52 1 9 6 37 9 62 5 33 12 46 24 47 9 0 23 2 31 3 8 2 42 6
75 10 328 35 700 150 1011 312 99 51 117 62 259 156 262 174 503 412 696 688
278 395 475 960 534 1529 10 99 -76 226 -173 255 -71 21 -190 13 -387 -26 -55
-11 -109 -21 -120 -23 -34 -5 -215 -55 -325 -90 -341 -106 -673 -275 -945
-480 -123 -92 -348 -305 -420 -397 -22 -28 -45 -56 -51 -62 -21 -22 -142 -202
-186 -276 -49 -84 -129 -246 -148 -302 l-14 -37 -46 102 c-238 519 -602 928
-1078 1211 -109 66 -301 161 -385 192 -154 57 -373 124 -449 138 -15 2 -31 7
-35 9 -5 3 -33 8 -63 12 -30 4 -57 8 -60 10 -14 9 -187 27 -285 30 -89 3 -119
0 -155 -14z"/>
<path d="M1450 2974 c-141 -61 -195 -227 -114 -355 63 -100 194 -138 304 -88
89 40 135 114 135 220 0 66 -4 81 -27 117 -15 22 -40 52 -55 66 -56 52 -172
71 -243 40z"/>
<path d="M5210 2900 c-140 -25 -229 -180 -183 -318 17 -48 73 -111 123 -137
41 -21 133 -27 184 -12 21 7 60 32 86 57 175 164 27 452 -210 410z"/>
<path d="M5754 2648 c-39 -19 -55 -79 -32 -121 17 -33 39 -46 79 -47 52 0 89
37 89 88 0 73 -68 113 -136 80z"/>
<path d="M1115 2303 c-55 -13 -86 -82 -61 -132 31 -60 122 -64 157 -7 42 67
-20 157 -96 139z"/>
<path d="M5736 2179 c-35 -42 -35 -87 2 -122 51 -49 132 -28 151 40 17 58 -27
112 -91 113 -28 0 -42 -7 -62 -31z"/>
</g>
</svg>
